<svg width="200" height="200" viewBox="0 0 200 200" fill="none" xmlns="http://www.w3.org/2000/svg">
<rect width="200" height="200" rx="50" fill="url(#paint0_linear_117_281)"/>
<path fill-rule="evenodd" clip-rule="evenodd" d="M44.7214 126.544C25.4611 75.7116 87.2958 24.9078 86.0053 36.7308C85.898 37.7139 84.937 39.6131 83.6431 42.17C77.7652 53.7858 65.018 78.9761 94.2331 93.5324C95.8015 94.3139 97.274 95.1344 98.6552 95.9896C112.404 100.709 122.286 113.751 122.286 129.102C122.286 148.432 106.616 164.102 87.2864 164.102C79.9755 164.102 73.1882 161.86 67.5741 158.027C59.4089 153.408 51.334 143.996 44.7214 126.544ZM134.786 80.1018C147.213 80.1018 157.286 70.0282 157.286 57.6018C157.286 45.1754 147.213 35.1018 134.786 35.1018C122.36 35.1018 112.286 45.1754 112.286 57.6018C112.286 70.0282 122.36 80.1018 134.786 80.1018ZM146.786 119.102C153.69 119.102 159.286 113.505 159.286 106.602C159.286 99.6983 153.69 94.1018 146.786 94.1018C139.883 94.1018 134.286 99.6983 134.286 106.602C134.286 113.505 139.883 119.102 146.786 119.102ZM157.286 140.602C157.286 144.744 153.929 148.102 149.786 148.102C145.644 148.102 142.286 144.744 142.286 140.602C142.286 136.46 145.644 133.102 149.786 133.102C153.929 133.102 157.286 136.46 157.286 140.602Z" fill="white"/>
<defs>
<linearGradient id="paint0_linear_117_281" x1="100" y1="0" x2="100" y2="200" gradientUnits="userSpaceOnUse">
<stop stop-color="#EE01AF"/>
<stop offset="0.729167" stop-color="#EE01AF" stop-opacity="0.48"/>
</linearGradient>
</defs>
</svg>
