<svg width="588" height="448" viewBox="0 0 588 448" fill="none" xmlns="http://www.w3.org/2000/svg">
<path d="M498.531 37.836C498.368 37.5193 498.097 37.2712 497.767 37.136C459.644 19.6446 419.413 7.17192 378.081 0.0299986C377.705 -0.0398123 377.318 0.0105501 376.972 0.173923C376.627 0.337297 376.342 0.605362 376.158 0.939998C370.68 10.8829 365.707 21.0959 361.258 31.54C316.705 24.7768 271.385 24.7768 226.832 31.54C222.354 21.0694 217.301 10.8538 211.697 0.939998C211.505 0.612635 211.218 0.350743 210.875 0.188431C210.532 0.0261187 210.148 -0.0290897 209.773 0.0299986C168.437 7.15693 128.203 19.6306 90.085 37.137C89.7587 37.2753 89.4834 37.5115 89.297 37.813C13.068 151.651 -7.814 262.69 2.43 372.354C2.45882 372.623 2.54139 372.883 2.67281 373.119C2.80423 373.355 2.98182 373.563 3.195 373.729C47.5824 406.595 97.2303 431.681 150.02 447.918C150.392 448.029 150.789 448.024 151.158 447.904C151.526 447.783 151.849 447.552 152.083 447.242C163.421 431.815 173.467 415.479 182.12 398.4C182.239 398.166 182.307 397.909 182.319 397.646C182.332 397.384 182.288 397.122 182.192 396.877C182.096 396.633 181.949 396.411 181.761 396.228C181.573 396.044 181.348 395.902 181.101 395.812C165.259 389.75 149.921 382.443 135.233 373.959C134.966 373.802 134.742 373.582 134.581 373.318C134.419 373.054 134.325 372.754 134.307 372.445C134.288 372.136 134.346 371.828 134.476 371.546C134.605 371.265 134.802 371.02 135.048 370.833C138.13 368.524 141.214 366.122 144.157 363.696C144.418 363.481 144.735 363.343 145.071 363.297C145.406 363.252 145.748 363.302 146.057 363.44C242.286 407.357 346.467 407.357 441.557 363.44C441.867 363.293 442.212 363.236 442.553 363.278C442.893 363.319 443.215 363.456 443.481 363.673C446.425 366.099 449.508 368.524 452.613 370.833C452.861 371.018 453.059 371.262 453.19 371.542C453.322 371.822 453.382 372.13 453.366 372.439C453.35 372.748 453.258 373.048 453.099 373.314C452.939 373.579 452.717 373.8 452.451 373.959C437.796 382.515 422.445 389.817 406.561 395.789C406.314 395.883 406.09 396.028 405.903 396.214C405.717 396.401 405.571 396.624 405.477 396.871C405.382 397.117 405.341 397.381 405.356 397.644C405.37 397.908 405.44 398.165 405.561 398.4C414.358 415.384 424.39 431.699 435.575 447.215C435.802 447.533 436.123 447.772 436.494 447.898C436.864 448.023 437.264 448.029 437.638 447.915C490.522 431.733 540.257 406.644 584.7 373.729C584.916 373.571 585.097 373.369 585.229 373.136C585.36 372.902 585.441 372.644 585.465 372.377C597.729 245.594 564.933 135.465 498.531 37.836ZM196.491 305.58C167.519 305.58 143.647 278.993 143.647 246.341C143.647 213.689 167.056 187.1 196.491 187.1C226.156 187.1 249.797 213.92 249.334 246.339C249.334 278.993 225.924 305.58 196.491 305.58ZM391.871 305.58C362.9 305.58 339.028 278.993 339.028 246.341C339.028 213.689 362.437 187.1 391.871 187.1C421.538 187.1 445.178 213.92 444.715 246.339C444.715 278.993 421.538 305.58 391.871 305.58Z" fill="white"/>
</svg>
