<svg width="512" height="512" viewBox="0 0 512 512" fill="none" xmlns="http://www.w3.org/2000/svg">
<g clip-path="url(#clip0_120_282)">
<path d="M459.4 151.7C459.725 156.248 459.725 160.797 459.725 165.35C459.725 304.05 354.125 463.95 161.125 463.95C101.675 463.95 46.425 446.73 0.0249939 416.84C8.47199 417.814 16.595 418.139 25.365 418.139C74.425 418.139 119.575 401.569 155.665 373.309C109.535 372.334 70.875 342.119 57.555 300.539C64.053 301.513 70.545 302.163 77.375 302.163C86.796 302.163 96.215 300.863 104.985 298.59C56.905 288.843 20.845 246.61 20.845 196.49V195.191C34.815 202.988 51.055 207.861 68.275 208.511C40.015 189.671 21.495 157.501 21.495 121.121C21.495 101.631 26.692 83.761 35.785 68.171C87.435 131.841 165.085 173.471 252.185 177.971C250.561 170.174 249.586 162.051 249.586 153.931C249.586 96.101 296.366 49.031 354.486 49.031C384.696 49.031 411.986 61.701 431.156 82.171C454.876 77.623 477.616 68.851 497.756 56.831C489.958 81.201 473.386 101.661 451.626 114.661C472.746 112.388 493.206 106.539 512.056 98.421C497.766 119.211 479.896 137.731 459.426 152.671L459.4 151.7Z" fill="white"/>
</g>
<defs>
<clipPath id="clip0_120_282">
<rect width="512" height="512" fill="white"/>
</clipPath>
</defs>
</svg>
