<svg width="407" height="317" viewBox="0 0 407 317" fill="none" xmlns="http://www.w3.org/2000/svg">
<path d="M151.012 28.662C176.525 17.9678 204.498 14.5369 231.838 18.7488C259.179 22.9608 284.823 34.6514 305.934 52.5282C327.045 70.405 342.802 93.7716 351.461 120.045C360.121 146.318 361.346 174.474 355.002 201.4C348.658 228.326 334.992 252.973 315.514 272.617C296.036 292.26 271.505 306.135 244.633 312.706C217.762 319.278 189.596 318.29 163.251 309.853C136.906 301.416 113.407 285.858 95.3521 264.899L140.811 225.739C151.644 238.315 165.743 247.65 181.551 252.712C197.358 257.774 214.257 258.367 230.38 254.424C246.503 250.481 261.221 242.156 272.908 230.37C284.595 218.584 292.795 203.795 296.601 187.64C300.408 171.484 299.672 154.591 294.477 138.827C289.281 123.063 279.827 109.043 267.16 98.3169C254.494 87.5908 239.108 80.5765 222.703 78.0493C206.299 75.5222 189.515 77.5807 174.207 83.9972L151.012 28.662Z" fill="#EE01AF"/>
<path d="M89.3474 257.461C75.3004 238.881 65.7734 217.286 61.521 194.385L120.513 183.431C123.064 197.171 128.78 210.129 137.208 221.277L89.3474 257.461Z" fill="#FF8EE1"/>
<path d="M59.8494 182.94C56.5912 152.454 62.7534 121.701 77.5061 94.8241C92.2588 67.9469 114.893 46.2359 142.362 32.615L169.017 86.369C152.536 94.5415 138.955 107.568 130.104 123.694C121.252 139.821 117.555 158.272 119.51 176.564L59.8494 182.94Z" fill="#908EFF"/>
<path d="M3.762 59.128C3.894 59.14 4.068 59.152 4.284 59.164C4.5 59.164 4.794 59.164 5.166 59.164C6.69 59.164 7.824 58.78 8.568 58.012C9.324 57.232 9.702 56.146 9.702 54.754C9.702 53.338 9.336 52.252 8.604 51.496C7.872 50.74 6.738 50.362 5.202 50.362C4.53 50.362 4.05 50.38 3.762 50.416V59.128ZM12.078 54.754C12.078 55.834 11.91 56.776 11.574 57.58C11.238 58.372 10.758 59.038 10.134 59.578C9.522 60.106 8.778 60.502 7.902 60.766C7.038 61.018 6.078 61.144 5.022 61.144C4.518 61.144 3.948 61.12 3.312 61.072C2.676 61.036 2.07 60.952 1.494 60.82V48.706C2.07 48.574 2.682 48.49 3.33 48.454C3.978 48.418 4.554 48.4 5.058 48.4C6.102 48.4 7.056 48.526 7.92 48.778C8.784 49.018 9.522 49.402 10.134 49.93C10.758 50.446 11.238 51.106 11.574 51.91C11.91 52.702 12.078 53.65 12.078 54.754ZM13.9245 56.338C13.9245 55.51 14.0445 54.784 14.2845 54.16C14.5365 53.536 14.8665 53.02 15.2745 52.612C15.6825 52.192 16.1505 51.88 16.6785 51.676C17.2065 51.46 17.7465 51.352 18.2985 51.352C19.5945 51.352 20.6025 51.754 21.3225 52.558C22.0545 53.362 22.4205 54.562 22.4205 56.158C22.4205 56.278 22.4145 56.416 22.4025 56.572C22.4025 56.716 22.3965 56.848 22.3845 56.968H16.1745C16.2345 57.724 16.4985 58.312 16.9665 58.732C17.4465 59.14 18.1365 59.344 19.0365 59.344C19.5645 59.344 20.0445 59.296 20.4765 59.2C20.9205 59.104 21.2685 59.002 21.5205 58.894L21.8085 60.676C21.6885 60.736 21.5205 60.802 21.3045 60.874C21.1005 60.934 20.8605 60.988 20.5845 61.036C20.3205 61.096 20.0325 61.144 19.7205 61.18C19.4085 61.216 19.0905 61.234 18.7665 61.234C17.9385 61.234 17.2185 61.114 16.6065 60.874C15.9945 60.622 15.4905 60.28 15.0945 59.848C14.6985 59.404 14.4045 58.888 14.2125 58.3C14.0205 57.7 13.9245 57.046 13.9245 56.338ZM20.2425 55.366C20.2425 55.066 20.2005 54.784 20.1165 54.52C20.0325 54.244 19.9065 54.01 19.7385 53.818C19.5825 53.614 19.3845 53.458 19.1445 53.35C18.9165 53.23 18.6405 53.17 18.3165 53.17C17.9805 53.17 17.6865 53.236 17.4345 53.368C17.1825 53.488 16.9665 53.65 16.7865 53.854C16.6185 54.058 16.4865 54.292 16.3905 54.556C16.2945 54.82 16.2285 55.09 16.1925 55.366H20.2425ZM27.1418 61C26.5418 59.764 25.9238 58.348 25.2878 56.752C24.6638 55.144 24.0938 53.422 23.5778 51.586H25.8998C26.0318 52.114 26.1818 52.684 26.3498 53.296C26.5298 53.896 26.7158 54.502 26.9078 55.114C27.1118 55.714 27.3158 56.302 27.5198 56.878C27.7358 57.442 27.9338 57.952 28.1138 58.408C28.2938 57.952 28.4858 57.442 28.6898 56.878C28.8938 56.302 29.0918 55.714 29.2838 55.114C29.4878 54.502 29.6798 53.896 29.8598 53.296C30.0398 52.684 30.1958 52.114 30.3278 51.586H32.5778C32.0618 53.422 31.4858 55.144 30.8498 56.752C30.2258 58.348 29.6138 59.764 29.0138 61H27.1418ZM33.4714 56.338C33.4714 55.51 33.5914 54.784 33.8314 54.16C34.0834 53.536 34.4134 53.02 34.8214 52.612C35.2294 52.192 35.6974 51.88 36.2254 51.676C36.7534 51.46 37.2934 51.352 37.8454 51.352C39.1414 51.352 40.1494 51.754 40.8694 52.558C41.6014 53.362 41.9674 54.562 41.9674 56.158C41.9674 56.278 41.9614 56.416 41.9494 56.572C41.9494 56.716 41.9434 56.848 41.9314 56.968H35.7214C35.7814 57.724 36.0454 58.312 36.5134 58.732C36.9934 59.14 37.6834 59.344 38.5834 59.344C39.1114 59.344 39.5914 59.296 40.0234 59.2C40.4674 59.104 40.8154 59.002 41.0674 58.894L41.3554 60.676C41.2354 60.736 41.0674 60.802 40.8514 60.874C40.6474 60.934 40.4074 60.988 40.1314 61.036C39.8674 61.096 39.5794 61.144 39.2674 61.18C38.9554 61.216 38.6374 61.234 38.3134 61.234C37.4854 61.234 36.7654 61.114 36.1534 60.874C35.5414 60.622 35.0374 60.28 34.6414 59.848C34.2454 59.404 33.9514 58.888 33.7594 58.3C33.5674 57.7 33.4714 57.046 33.4714 56.338ZM39.7894 55.366C39.7894 55.066 39.7474 54.784 39.6634 54.52C39.5794 54.244 39.4534 54.01 39.2854 53.818C39.1294 53.614 38.9314 53.458 38.6914 53.35C38.4634 53.23 38.1874 53.17 37.8634 53.17C37.5274 53.17 37.2334 53.236 36.9814 53.368C36.7294 53.488 36.5134 53.65 36.3334 53.854C36.1654 54.058 36.0334 54.292 35.9374 54.556C35.8414 54.82 35.7754 55.09 35.7394 55.366H39.7894ZM47.5526 61.18C46.9046 61.168 46.3646 61.096 45.9326 60.964C45.5126 60.832 45.1766 60.646 44.9246 60.406C44.6726 60.154 44.4926 59.848 44.3846 59.488C44.2886 59.116 44.2406 58.696 44.2406 58.228V47.392L46.4186 47.032V57.814C46.4186 58.078 46.4366 58.3 46.4726 58.48C46.5206 58.66 46.5986 58.816 46.7066 58.948C46.8146 59.068 46.9586 59.164 47.1386 59.236C47.3306 59.296 47.5706 59.344 47.8586 59.38L47.5526 61.18ZM58.1344 56.284C58.1344 57.028 58.0264 57.706 57.8104 58.318C57.5944 58.93 57.2884 59.452 56.8924 59.884C56.4964 60.316 56.0164 60.652 55.4524 60.892C54.9004 61.132 54.2884 61.252 53.6164 61.252C52.9444 61.252 52.3324 61.132 51.7804 60.892C51.2284 60.652 50.7544 60.316 50.3584 59.884C49.9624 59.452 49.6504 58.93 49.4224 58.318C49.2064 57.706 49.0984 57.028 49.0984 56.284C49.0984 55.54 49.2064 54.868 49.4224 54.268C49.6504 53.656 49.9624 53.134 50.3584 52.702C50.7664 52.27 51.2464 51.94 51.7984 51.712C52.3504 51.472 52.9564 51.352 53.6164 51.352C54.2764 51.352 54.8824 51.472 55.4344 51.712C55.9984 51.94 56.4784 52.27 56.8744 52.702C57.2704 53.134 57.5764 53.656 57.7924 54.268C58.0204 54.868 58.1344 55.54 58.1344 56.284ZM55.9024 56.284C55.9024 55.348 55.6984 54.61 55.2904 54.07C54.8944 53.518 54.3364 53.242 53.6164 53.242C52.8964 53.242 52.3324 53.518 51.9244 54.07C51.5284 54.61 51.3304 55.348 51.3304 56.284C51.3304 57.232 51.5284 57.982 51.9244 58.534C52.3324 59.086 52.8964 59.362 53.6164 59.362C54.3364 59.362 54.8944 59.086 55.2904 58.534C55.6984 57.982 55.9024 57.232 55.9024 56.284ZM66.6242 56.338C66.6242 55.366 66.4022 54.61 65.9582 54.07C65.5262 53.53 64.8242 53.26 63.8522 53.26C63.6482 53.26 63.4322 53.272 63.2042 53.296C62.9882 53.308 62.7722 53.344 62.5562 53.404V58.786C62.7482 58.918 63.0002 59.044 63.3122 59.164C63.6362 59.272 63.9782 59.326 64.3382 59.326C65.1302 59.326 65.7062 59.056 66.0662 58.516C66.4382 57.976 66.6242 57.25 66.6242 56.338ZM68.8562 56.302C68.8562 57.022 68.7602 57.682 68.5682 58.282C68.3882 58.882 68.1242 59.398 67.7762 59.83C67.4282 60.262 66.9902 60.598 66.4622 60.838C65.9462 61.078 65.3582 61.198 64.6982 61.198C64.2542 61.198 63.8462 61.144 63.4742 61.036C63.1022 60.928 62.7962 60.808 62.5562 60.676V64.33H60.3782V51.892C60.8222 51.772 61.3682 51.658 62.0162 51.55C62.6642 51.442 63.3482 51.388 64.0682 51.388C64.8122 51.388 65.4782 51.502 66.0662 51.73C66.6542 51.958 67.1522 52.288 67.5602 52.72C67.9802 53.14 68.2982 53.656 68.5142 54.268C68.7422 54.868 68.8562 55.546 68.8562 56.302ZM70.5788 56.338C70.5788 55.51 70.6988 54.784 70.9388 54.16C71.1908 53.536 71.5208 53.02 71.9288 52.612C72.3368 52.192 72.8048 51.88 73.3328 51.676C73.8608 51.46 74.4008 51.352 74.9528 51.352C76.2488 51.352 77.2568 51.754 77.9768 52.558C78.7088 53.362 79.0748 54.562 79.0748 56.158C79.0748 56.278 79.0688 56.416 79.0568 56.572C79.0568 56.716 79.0508 56.848 79.0388 56.968H72.8288C72.8888 57.724 73.1528 58.312 73.6208 58.732C74.1008 59.14 74.7908 59.344 75.6908 59.344C76.2188 59.344 76.6988 59.296 77.1308 59.2C77.5748 59.104 77.9228 59.002 78.1748 58.894L78.4628 60.676C78.3428 60.736 78.1748 60.802 77.9588 60.874C77.7548 60.934 77.5148 60.988 77.2388 61.036C76.9748 61.096 76.6868 61.144 76.3748 61.18C76.0628 61.216 75.7448 61.234 75.4208 61.234C74.5928 61.234 73.8728 61.114 73.2608 60.874C72.6488 60.622 72.1448 60.28 71.7488 59.848C71.3528 59.404 71.0588 58.888 70.8668 58.3C70.6748 57.7 70.5788 57.046 70.5788 56.338ZM76.8968 55.366C76.8968 55.066 76.8548 54.784 76.7708 54.52C76.6868 54.244 76.5608 54.01 76.3928 53.818C76.2368 53.614 76.0388 53.458 75.7988 53.35C75.5708 53.23 75.2948 53.17 74.9708 53.17C74.6348 53.17 74.3408 53.236 74.0888 53.368C73.8368 53.488 73.6208 53.65 73.4408 53.854C73.2728 54.058 73.1408 54.292 73.0448 54.556C72.9488 54.82 72.8828 55.09 72.8468 55.366H76.8968ZM86.748 53.548C86.568 53.488 86.316 53.428 85.992 53.368C85.68 53.296 85.314 53.26 84.894 53.26C84.654 53.26 84.396 53.284 84.12 53.332C83.856 53.38 83.67 53.422 83.562 53.458V61H81.384V52.036C81.804 51.88 82.326 51.736 82.95 51.604C83.586 51.46 84.288 51.388 85.056 51.388C85.2 51.388 85.368 51.4 85.56 51.424C85.752 51.436 85.944 51.46 86.136 51.496C86.328 51.52 86.514 51.556 86.694 51.604C86.874 51.64 87.018 51.676 87.126 51.712L86.748 53.548ZM91.0018 59.434C91.5778 59.434 91.9978 59.368 92.2618 59.236C92.5258 59.092 92.6578 58.852 92.6578 58.516C92.6578 58.204 92.5138 57.946 92.2258 57.742C91.9498 57.538 91.4878 57.316 90.8398 57.076C90.4438 56.932 90.0778 56.782 89.7418 56.626C89.4178 56.458 89.1358 56.266 88.8958 56.05C88.6558 55.834 88.4638 55.576 88.3198 55.276C88.1878 54.964 88.1218 54.586 88.1218 54.142C88.1218 53.278 88.4398 52.6 89.0758 52.108C89.7118 51.604 90.5758 51.352 91.6678 51.352C92.2198 51.352 92.7478 51.406 93.2518 51.514C93.7558 51.61 94.1338 51.706 94.3858 51.802L93.9898 53.566C93.7498 53.458 93.4438 53.362 93.0718 53.278C92.6998 53.182 92.2678 53.134 91.7758 53.134C91.3318 53.134 90.9718 53.212 90.6958 53.368C90.4198 53.512 90.2818 53.74 90.2818 54.052C90.2818 54.208 90.3058 54.346 90.3538 54.466C90.4138 54.586 90.5098 54.7 90.6418 54.808C90.7738 54.904 90.9478 55.006 91.1638 55.114C91.3798 55.21 91.6438 55.312 91.9558 55.42C92.4718 55.612 92.9098 55.804 93.2698 55.996C93.6298 56.176 93.9238 56.386 94.1518 56.626C94.3918 56.854 94.5658 57.118 94.6738 57.418C94.7818 57.718 94.8358 58.078 94.8358 58.498C94.8358 59.398 94.4998 60.082 93.8278 60.55C93.1678 61.006 92.2198 61.234 90.9838 61.234C90.1558 61.234 89.4898 61.162 88.9858 61.018C88.4818 60.886 88.1278 60.778 87.9238 60.694L88.3018 58.876C88.6258 59.008 89.0098 59.134 89.4538 59.254C89.9098 59.374 90.4258 59.434 91.0018 59.434Z" fill="#908EFF"/>
<path d="M13.774 237C13.606 236.508 13.432 236.022 13.252 235.542C13.072 235.062 12.898 234.57 12.73 234.066H7.474C7.306 234.57 7.132 235.068 6.952 235.56C6.784 236.04 6.616 236.52 6.448 237H4.09C4.558 235.668 5.002 234.438 5.422 233.31C5.842 232.182 6.25 231.114 6.646 230.106C7.054 229.098 7.456 228.138 7.852 227.226C8.248 226.314 8.656 225.414 9.076 224.526H11.218C11.638 225.414 12.046 226.314 12.442 227.226C12.838 228.138 13.234 229.098 13.63 230.106C14.038 231.114 14.452 232.182 14.872 233.31C15.304 234.438 15.754 235.668 16.222 237H13.774ZM10.102 226.938C9.826 227.574 9.508 228.348 9.148 229.26C8.8 230.172 8.434 231.162 8.05 232.23H12.154C11.77 231.162 11.398 230.166 11.038 229.242C10.678 228.318 10.366 227.55 10.102 226.938ZM19.8867 237H17.7087V227.586H19.8867V237ZM20.1207 224.832C20.1207 225.24 19.9887 225.564 19.7247 225.804C19.4607 226.044 19.1487 226.164 18.7887 226.164C18.4167 226.164 18.0987 226.044 17.8347 225.804C17.5707 225.564 17.4387 225.24 17.4387 224.832C17.4387 224.412 17.5707 224.082 17.8347 223.842C18.0987 223.602 18.4167 223.482 18.7887 223.482C19.1487 223.482 19.4607 223.602 19.7247 223.842C19.9887 224.082 20.1207 224.412 20.1207 224.832ZM28.0293 229.548C27.8493 229.488 27.5973 229.428 27.2733 229.368C26.9613 229.296 26.5953 229.26 26.1753 229.26C25.9353 229.26 25.6773 229.284 25.4013 229.332C25.1373 229.38 24.9513 229.422 24.8433 229.458V237H22.6653V228.036C23.0853 227.88 23.6073 227.736 24.2313 227.604C24.8673 227.46 25.5693 227.388 26.3373 227.388C26.4813 227.388 26.6493 227.4 26.8413 227.424C27.0333 227.436 27.2253 227.46 27.4173 227.496C27.6093 227.52 27.7953 227.556 27.9753 227.604C28.1553 227.64 28.2993 227.676 28.4073 227.712L28.0293 229.548ZM31.6351 232.266C31.6351 233.226 31.8631 233.982 32.3191 234.534C32.7751 235.074 33.4051 235.344 34.2091 235.344C34.5571 235.344 34.8511 235.332 35.0911 235.308C35.3431 235.272 35.5471 235.236 35.7031 235.2V229.8C35.5111 229.668 35.2531 229.548 34.9291 229.44C34.6171 229.32 34.2811 229.26 33.9211 229.26C33.1291 229.26 32.5471 229.53 32.1751 230.07C31.8151 230.61 31.6351 231.342 31.6351 232.266ZM37.8811 236.712C37.4491 236.844 36.9031 236.964 36.2431 237.072C35.5951 237.18 34.9111 237.234 34.1911 237.234C33.4471 237.234 32.7811 237.12 32.1931 236.892C31.6051 236.664 31.1011 236.34 30.6811 235.92C30.2731 235.488 29.9551 234.972 29.7271 234.372C29.5111 233.76 29.4031 233.076 29.4031 232.32C29.4031 231.576 29.4931 230.904 29.6731 230.304C29.8651 229.692 30.1411 229.17 30.5011 228.738C30.8611 228.306 31.2991 227.976 31.8151 227.748C32.3311 227.508 32.9251 227.388 33.5971 227.388C34.0531 227.388 34.4551 227.442 34.8031 227.55C35.1511 227.658 35.4511 227.778 35.7031 227.91V223.392L37.8811 223.032V236.712ZM46.0117 229.548C45.8317 229.488 45.5797 229.428 45.2557 229.368C44.9437 229.296 44.5777 229.26 44.1577 229.26C43.9177 229.26 43.6597 229.284 43.3837 229.332C43.1197 229.38 42.9337 229.422 42.8257 229.458V237H40.6477V228.036C41.0677 227.88 41.5897 227.736 42.2137 227.604C42.8497 227.46 43.5517 227.388 44.3197 227.388C44.4637 227.388 44.6317 227.4 44.8237 227.424C45.0157 227.436 45.2077 227.46 45.3997 227.496C45.5917 227.52 45.7777 227.556 45.9577 227.604C46.1377 227.64 46.2817 227.676 46.3897 227.712L46.0117 229.548ZM56.4215 232.284C56.4215 233.028 56.3135 233.706 56.0975 234.318C55.8815 234.93 55.5755 235.452 55.1795 235.884C54.7835 236.316 54.3035 236.652 53.7395 236.892C53.1875 237.132 52.5755 237.252 51.9035 237.252C51.2315 237.252 50.6195 237.132 50.0675 236.892C49.5155 236.652 49.0415 236.316 48.6455 235.884C48.2495 235.452 47.9375 234.93 47.7095 234.318C47.4935 233.706 47.3855 233.028 47.3855 232.284C47.3855 231.54 47.4935 230.868 47.7095 230.268C47.9375 229.656 48.2495 229.134 48.6455 228.702C49.0535 228.27 49.5335 227.94 50.0855 227.712C50.6375 227.472 51.2435 227.352 51.9035 227.352C52.5635 227.352 53.1695 227.472 53.7215 227.712C54.2855 227.94 54.7655 228.27 55.1615 228.702C55.5575 229.134 55.8635 229.656 56.0795 230.268C56.3075 230.868 56.4215 231.54 56.4215 232.284ZM54.1895 232.284C54.1895 231.348 53.9855 230.61 53.5775 230.07C53.1815 229.518 52.6235 229.242 51.9035 229.242C51.1835 229.242 50.6195 229.518 50.2115 230.07C49.8155 230.61 49.6175 231.348 49.6175 232.284C49.6175 233.232 49.8155 233.982 50.2115 234.534C50.6195 235.086 51.1835 235.362 51.9035 235.362C52.6235 235.362 53.1815 235.086 53.5775 234.534C53.9855 233.982 54.1895 233.232 54.1895 232.284ZM64.9113 232.338C64.9113 231.366 64.6893 230.61 64.2453 230.07C63.8133 229.53 63.1113 229.26 62.1393 229.26C61.9353 229.26 61.7193 229.272 61.4913 229.296C61.2753 229.308 61.0593 229.344 60.8433 229.404V234.786C61.0353 234.918 61.2873 235.044 61.5993 235.164C61.9233 235.272 62.2653 235.326 62.6253 235.326C63.4173 235.326 63.9933 235.056 64.3533 234.516C64.7253 233.976 64.9113 233.25 64.9113 232.338ZM67.1433 232.302C67.1433 233.022 67.0473 233.682 66.8553 234.282C66.6753 234.882 66.4113 235.398 66.0633 235.83C65.7153 236.262 65.2773 236.598 64.7493 236.838C64.2333 237.078 63.6453 237.198 62.9853 237.198C62.5413 237.198 62.1333 237.144 61.7613 237.036C61.3893 236.928 61.0833 236.808 60.8433 236.676V240.33H58.6653V227.892C59.1093 227.772 59.6553 227.658 60.3033 227.55C60.9513 227.442 61.6353 227.388 62.3553 227.388C63.0993 227.388 63.7653 227.502 64.3533 227.73C64.9413 227.958 65.4393 228.288 65.8473 228.72C66.2673 229.14 66.5853 229.656 66.8013 230.268C67.0293 230.868 67.1433 231.546 67.1433 232.302Z" fill="#FF8EE1"/>
<path d="M270.038 17.27C269.102 17.27 268.262 17.126 267.518 16.838C266.774 16.55 266.144 16.13 265.628 15.578C265.112 15.014 264.716 14.33 264.44 13.526C264.164 12.722 264.026 11.798 264.026 10.754C264.026 9.71 264.182 8.786 264.494 7.982C264.818 7.178 265.256 6.5 265.808 5.948C266.36 5.384 267.008 4.958 267.752 4.67C268.496 4.382 269.294 4.238 270.146 4.238C270.662 4.238 271.13 4.28 271.55 4.364C271.97 4.436 272.336 4.52 272.648 4.616C272.96 4.712 273.218 4.814 273.422 4.922C273.626 5.03 273.77 5.108 273.854 5.156L273.188 7.01C272.9 6.83 272.486 6.662 271.946 6.506C271.418 6.338 270.842 6.254 270.218 6.254C269.678 6.254 269.174 6.35 268.706 6.542C268.238 6.722 267.83 6.998 267.482 7.37C267.146 7.742 266.882 8.21 266.69 8.774C266.498 9.338 266.402 9.992 266.402 10.736C266.402 11.396 266.474 12.002 266.618 12.554C266.774 13.106 267.008 13.586 267.32 13.994C267.632 14.39 268.028 14.702 268.508 14.93C268.988 15.146 269.564 15.254 270.236 15.254C271.04 15.254 271.694 15.176 272.198 15.02C272.702 14.852 273.092 14.696 273.368 14.552L273.98 16.406C273.836 16.502 273.638 16.598 273.386 16.694C273.146 16.79 272.858 16.886 272.522 16.982C272.186 17.066 271.808 17.132 271.388 17.18C270.968 17.24 270.518 17.27 270.038 17.27ZM284.15 12.284C284.15 13.028 284.042 13.706 283.826 14.318C283.61 14.93 283.304 15.452 282.908 15.884C282.512 16.316 282.032 16.652 281.468 16.892C280.916 17.132 280.304 17.252 279.632 17.252C278.96 17.252 278.348 17.132 277.796 16.892C277.244 16.652 276.77 16.316 276.374 15.884C275.978 15.452 275.666 14.93 275.438 14.318C275.222 13.706 275.114 13.028 275.114 12.284C275.114 11.54 275.222 10.868 275.438 10.268C275.666 9.656 275.978 9.134 276.374 8.702C276.782 8.27 277.262 7.94 277.814 7.712C278.366 7.472 278.972 7.352 279.632 7.352C280.292 7.352 280.898 7.472 281.45 7.712C282.014 7.94 282.494 8.27 282.89 8.702C283.286 9.134 283.592 9.656 283.808 10.268C284.036 10.868 284.15 11.54 284.15 12.284ZM281.918 12.284C281.918 11.348 281.714 10.61 281.306 10.07C280.91 9.518 280.352 9.242 279.632 9.242C278.912 9.242 278.348 9.518 277.94 10.07C277.544 10.61 277.346 11.348 277.346 12.284C277.346 13.232 277.544 13.982 277.94 14.534C278.348 15.086 278.912 15.362 279.632 15.362C280.352 15.362 280.91 15.086 281.306 14.534C281.714 13.982 281.918 13.232 281.918 12.284ZM291.758 12.05C291.758 11.066 291.632 10.358 291.38 9.926C291.14 9.482 290.684 9.26 290.012 9.26C289.772 9.26 289.508 9.278 289.22 9.314C288.932 9.35 288.716 9.38 288.572 9.404V17H286.394V7.892C286.814 7.772 287.36 7.658 288.032 7.55C288.716 7.442 289.436 7.388 290.192 7.388C290.84 7.388 291.368 7.472 291.776 7.64C292.196 7.808 292.544 8.03 292.82 8.306C292.952 8.21 293.12 8.108 293.324 8C293.528 7.892 293.756 7.796 294.008 7.712C294.26 7.616 294.524 7.538 294.8 7.478C295.088 7.418 295.376 7.388 295.664 7.388C296.396 7.388 296.996 7.496 297.464 7.712C297.944 7.916 298.316 8.21 298.58 8.594C298.856 8.966 299.042 9.422 299.138 9.962C299.246 10.49 299.3 11.072 299.3 11.708V17H297.122V12.05C297.122 11.066 297.002 10.358 296.762 9.926C296.522 9.482 296.06 9.26 295.376 9.26C295.028 9.26 294.698 9.32 294.386 9.44C294.074 9.548 293.84 9.656 293.684 9.764C293.78 10.064 293.846 10.382 293.882 10.718C293.918 11.054 293.936 11.414 293.936 11.798V17H291.758V12.05ZM307.332 12.05C307.332 11.066 307.206 10.358 306.954 9.926C306.714 9.482 306.258 9.26 305.586 9.26C305.346 9.26 305.082 9.278 304.794 9.314C304.506 9.35 304.29 9.38 304.146 9.404V17H301.968V7.892C302.388 7.772 302.934 7.658 303.606 7.55C304.29 7.442 305.01 7.388 305.766 7.388C306.414 7.388 306.942 7.472 307.35 7.64C307.77 7.808 308.118 8.03 308.394 8.306C308.526 8.21 308.694 8.108 308.898 8C309.102 7.892 309.33 7.796 309.582 7.712C309.834 7.616 310.098 7.538 310.374 7.478C310.662 7.418 310.95 7.388 311.238 7.388C311.97 7.388 312.57 7.496 313.038 7.712C313.518 7.916 313.89 8.21 314.154 8.594C314.43 8.966 314.616 9.422 314.712 9.962C314.82 10.49 314.874 11.072 314.874 11.708V17H312.696V12.05C312.696 11.066 312.576 10.358 312.336 9.926C312.096 9.482 311.634 9.26 310.95 9.26C310.602 9.26 310.272 9.32 309.96 9.44C309.648 9.548 309.414 9.656 309.258 9.764C309.354 10.064 309.42 10.382 309.456 10.718C309.492 11.054 309.51 11.414 309.51 11.798V17H307.332V12.05ZM325.264 16.712C324.844 16.82 324.298 16.928 323.626 17.036C322.954 17.156 322.216 17.216 321.412 17.216C320.656 17.216 320.02 17.108 319.504 16.892C319 16.676 318.592 16.376 318.28 15.992C317.98 15.608 317.764 15.152 317.632 14.624C317.5 14.084 317.434 13.496 317.434 12.86V7.586H319.612V12.518C319.612 13.526 319.756 14.246 320.044 14.678C320.344 15.11 320.86 15.326 321.592 15.326C321.856 15.326 322.132 15.314 322.42 15.29C322.72 15.266 322.942 15.236 323.086 15.2V7.586H325.264V16.712ZM328.036 7.892C328.456 7.772 329.002 7.658 329.674 7.55C330.346 7.442 331.09 7.388 331.906 7.388C332.674 7.388 333.316 7.496 333.832 7.712C334.348 7.916 334.756 8.21 335.056 8.594C335.368 8.966 335.584 9.422 335.704 9.962C335.836 10.49 335.902 11.072 335.902 11.708V17H333.724V12.05C333.724 11.546 333.688 11.12 333.616 10.772C333.556 10.412 333.448 10.124 333.292 9.908C333.148 9.68 332.944 9.518 332.68 9.422C332.428 9.314 332.116 9.26 331.744 9.26C331.468 9.26 331.18 9.278 330.88 9.314C330.58 9.35 330.358 9.38 330.214 9.404V17H328.036V7.892ZM340.762 17H338.584V7.586H340.762V17ZM340.996 4.832C340.996 5.24 340.864 5.564 340.6 5.804C340.336 6.044 340.024 6.164 339.664 6.164C339.292 6.164 338.974 6.044 338.71 5.804C338.446 5.564 338.314 5.24 338.314 4.832C338.314 4.412 338.446 4.082 338.71 3.842C338.974 3.602 339.292 3.482 339.664 3.482C340.024 3.482 340.336 3.602 340.6 3.842C340.864 4.082 340.996 4.412 340.996 4.832ZM343.432 5.102L345.61 4.742V7.586H348.958V9.404H345.61V13.238C345.61 13.994 345.73 14.534 345.97 14.858C346.21 15.182 346.618 15.344 347.194 15.344C347.59 15.344 347.938 15.302 348.238 15.218C348.55 15.134 348.796 15.056 348.976 14.984L349.336 16.712C349.084 16.82 348.754 16.928 348.346 17.036C347.938 17.156 347.458 17.216 346.906 17.216C346.234 17.216 345.67 17.126 345.214 16.946C344.77 16.766 344.416 16.508 344.152 16.172C343.888 15.824 343.702 15.41 343.594 14.93C343.486 14.438 343.432 13.88 343.432 13.256V5.102ZM358.75 7.586C357.778 11.162 356.65 14.402 355.366 17.306C355.126 17.846 354.88 18.308 354.628 18.692C354.376 19.076 354.094 19.394 353.782 19.646C353.47 19.898 353.122 20.078 352.738 20.186C352.354 20.306 351.91 20.366 351.406 20.366C351.07 20.366 350.734 20.33 350.398 20.258C350.074 20.186 349.828 20.108 349.66 20.024L350.056 18.278C350.488 18.446 350.914 18.53 351.334 18.53C351.898 18.53 352.336 18.392 352.648 18.116C352.972 17.852 353.254 17.438 353.494 16.874C352.81 15.554 352.15 14.114 351.514 12.554C350.89 10.994 350.332 9.338 349.84 7.586H352.162C352.282 8.09 352.426 8.636 352.594 9.224C352.774 9.812 352.966 10.412 353.17 11.024C353.374 11.624 353.59 12.224 353.818 12.824C354.046 13.424 354.274 13.982 354.502 14.498C354.886 13.43 355.246 12.296 355.582 11.096C355.918 9.884 356.224 8.714 356.5 7.586H358.75Z" fill="#EE01AF"/>
</svg>
